<mxfile host="drawio-plugin" modified="2023-02-26T18:30:29.942Z" agent="5.0 (Macintosh; Intel Mac OS X 10_15_7) AppleWebKit/537.36 (KHTML, like Gecko) Chrome/89.0.4389.114 Safari/537.36" etag="AOjUi2yXNRvywyOW2joN" version="20.5.3" type="embed" pages="3"><diagram id="GYNA2H2gV2U_i67wcPqO" name="Port-Adapter-Architecture"><mxGraphModel dx="1740" dy="1155" grid="1" gridSize="10" guides="1" tooltips="1" connect="1" arrows="1" fold="1" page="1" pageScale="1" pageWidth="827" pageHeight="1169" math="0" shadow="0"><root><mxCell id="0"/><mxCell id="1" parent="0"/><mxCell id="Wg2WPYkWmGxqMk68Ed48-8" value="" style="rounded=0;whiteSpace=wrap;html=1;fillColor=#D5E8D4;fontColor=#ffffff;strokeColor=none;" parent="1" vertex="1"><mxGeometry x="120" y="60" width="810" height="1100" as="geometry"/></mxCell><mxCell id="Wg2WPYkWmGxqMk68Ed48-10" value="" style="rounded=0;whiteSpace=wrap;html=1;fillColor=#FFCE9F;fontColor=#000000;strokeColor=none;" parent="1" vertex="1"><mxGeometry x="930" y="60" width="810" height="1100" as="geometry"/></mxCell><mxCell id="Wg2WPYkWmGxqMk68Ed48-47" value="" style="verticalLabelPosition=bottom;verticalAlign=top;html=1;shape=mxgraph.basic.half_circle;dashed=1;fontFamily=Tahoma;fontSize=16;strokeColor=none;strokeWidth=3;fillColor=#E1F5E0;gradientColor=none;rotation=90;" parent="1" vertex="1"><mxGeometry x="210" y="369.37" width="962.5" height="481.25" as="geometry"/></mxCell><mxCell id="Wg2WPYkWmGxqMk68Ed48-48" value="" style="verticalLabelPosition=bottom;verticalAlign=top;html=1;shape=mxgraph.basic.half_circle;dashed=1;fontFamily=Tahoma;fontSize=16;strokeColor=none;strokeWidth=3;fillColor=#FFE6CC;gradientColor=none;rotation=-90;" parent="1" vertex="1"><mxGeometry x="690" y="369.37" width="962.5" height="481.25" as="geometry"/></mxCell><mxCell id="Wg2WPYkWmGxqMk68Ed48-2" value="" style="ellipse;whiteSpace=wrap;html=1;aspect=fixed;fillColor=#e1d5e7;strokeWidth=40;strokeColor=#9673a6;" parent="1" vertex="1"><mxGeometry x="580" y="247" width="720" height="720" as="geometry"/></mxCell><mxCell id="Wg2WPYkWmGxqMk68Ed48-17" value="" style="shape=hexagon;perimeter=hexagonPerimeter2;whiteSpace=wrap;html=1;fixedSize=1;fontFamily=Tahoma;fontSize=16;fillColor=#fad9d5;size=133.46000000000004;rotation=90;strokeWidth=15;strokeColor=#ae4132;" parent="1" vertex="1"><mxGeometry x="650.54" y="352.5" width="558.92" height="515" as="geometry"/></mxCell><mxCell id="Wg2WPYkWmGxqMk68Ed48-28" value="" style="ellipse;whiteSpace=wrap;html=1;aspect=fixed;fontFamily=Tahoma;fontSize=16;strokeColor=#d6b656;strokeWidth=3;fillColor=#fff2cc;dashed=1;" parent="1" vertex="1"><mxGeometry x="750" y="420" width="360" height="360" as="geometry"/></mxCell><mxCell id="Wg2WPYkWmGxqMk68Ed48-3" value="" style="ellipse;whiteSpace=wrap;html=1;aspect=fixed;strokeWidth=5;fillColor=#fad7ac;strokeColor=#b46504;" parent="1" vertex="1"><mxGeometry x="800.5" y="470.5" width="259" height="259" as="geometry"/></mxCell><mxCell id="Wg2WPYkWmGxqMk68Ed48-4" value="Command / Query BUS" style="rounded=0;whiteSpace=wrap;html=1;strokeColor=none;fillColor=#9673A6;fontColor=#FFFFFF;" parent="1" vertex="1"><mxGeometry x="810" y="210" width="120" height="50" as="geometry"/></mxCell><mxCell id="Wg2WPYkWmGxqMk68Ed48-11" value="Adapters IN" style="text;html=1;strokeColor=none;fillColor=none;align=center;verticalAlign=middle;whiteSpace=wrap;rounded=0;fontFamily=Tahoma;fontSize=28;fontColor=#4D9900;" parent="1" vertex="1"><mxGeometry x="140" y="100" width="160" height="30" as="geometry"/></mxCell><mxCell id="Wg2WPYkWmGxqMk68Ed48-5" value="Event&lt;br&gt;BUS" style="rounded=0;whiteSpace=wrap;html=1;strokeColor=none;fillColor=#9673A6;fontColor=#FFFFFF;" parent="1" vertex="1"><mxGeometry x="930" y="210" width="120" height="50" as="geometry"/></mxCell><mxCell id="Wg2WPYkWmGxqMk68Ed48-12" value="Adapters OUT" style="text;html=1;strokeColor=none;fillColor=none;align=center;verticalAlign=middle;whiteSpace=wrap;rounded=0;fontFamily=Tahoma;fontSize=28;fontColor=#CC6600;" parent="1" vertex="1"><mxGeometry x="1510" y="100" width="190" height="30" as="geometry"/></mxCell><mxCell id="Wg2WPYkWmGxqMk68Ed48-14" value="REST Controller" style="rounded=0;whiteSpace=wrap;html=1;fontFamily=Tahoma;fontSize=16;fillColor=#fff2cc;strokeColor=#000000;strokeWidth=2;" parent="1" vertex="1"><mxGeometry x="308" y="579.99" width="210" height="60" as="geometry"/></mxCell><mxCell id="Wg2WPYkWmGxqMk68Ed48-57" value="" style="ellipse;whiteSpace=wrap;html=1;aspect=fixed;fontFamily=Tahoma;fontSize=16;strokeColor=#000000;strokeWidth=2;fillColor=#E1F5E0;" parent="1" vertex="1"><mxGeometry x="503.99" y="602.49" width="15.01" height="15.01" as="geometry"/></mxCell><mxCell id="Wg2WPYkWmGxqMk68Ed48-16" value="" style="shape=actor;whiteSpace=wrap;html=1;fontFamily=Tahoma;fontSize=16;fillColor=default;" parent="1" vertex="1"><mxGeometry x="140" y="577" width="40" height="60" as="geometry"/></mxCell><mxCell id="Wg2WPYkWmGxqMk68Ed48-25" value="Commands &amp;amp; Queries&lt;br&gt;&amp;lt;I&amp;gt;" style="text;html=1;strokeColor=none;fillColor=none;align=center;verticalAlign=middle;whiteSpace=wrap;rounded=0;fontFamily=Tahoma;fontSize=16;rotation=-90;" parent="1" vertex="1"><mxGeometry x="616" y="595" width="170" height="30" as="geometry"/></mxCell><mxCell id="Wg2WPYkWmGxqMk68Ed48-26" value="PORTS IN" style="text;html=1;strokeColor=none;fillColor=none;align=center;verticalAlign=middle;whiteSpace=wrap;rounded=0;fontFamily=Tahoma;fontSize=16;rotation=-30;" parent="1" vertex="1"><mxGeometry x="734" y="373" width="90" height="30" as="geometry"/></mxCell><mxCell id="Wg2WPYkWmGxqMk68Ed48-29" value="Application" style="rounded=0;whiteSpace=wrap;html=1;dashed=1;fontFamily=Tahoma;fontSize=16;strokeColor=none;strokeWidth=3;fillColor=#AE4132;gradientColor=none;fontColor=#FFFFFF;" parent="1" vertex="1"><mxGeometry x="845" y="300" width="170" height="40" as="geometry"/></mxCell><mxCell id="Wg2WPYkWmGxqMk68Ed48-30" value="PORTS OUT" style="text;html=1;strokeColor=none;fillColor=none;align=center;verticalAlign=middle;whiteSpace=wrap;rounded=0;fontFamily=Tahoma;fontSize=16;rotation=30;" parent="1" vertex="1"><mxGeometry x="1038" y="376" width="90" height="30" as="geometry"/></mxCell><mxCell id="Wg2WPYkWmGxqMk68Ed48-35" value="DomainEntities" style="text;html=1;strokeColor=none;fillColor=none;align=center;verticalAlign=middle;whiteSpace=wrap;rounded=0;dashed=1;fontFamily=Tahoma;fontSize=16;" parent="1" vertex="1"><mxGeometry x="875" y="579.99" width="110" height="30" as="geometry"/></mxCell><mxCell id="Wg2WPYkWmGxqMk68Ed48-45" value="" style="endArrow=none;dashed=1;html=1;strokeWidth=2;rounded=0;shadow=0;sketch=0;fontFamily=Tahoma;fontSize=16;jumpStyle=none;jumpSize=11;entryX=0;entryY=0;entryDx=0;entryDy=0;endSize=6;strokeColor=#666666;exitX=0.5;exitY=0;exitDx=0;exitDy=0;" parent="1" source="Wg2WPYkWmGxqMk68Ed48-29" target="Wg2WPYkWmGxqMk68Ed48-10" edge="1"><mxGeometry width="50" height="50" relative="1" as="geometry"><mxPoint x="930" y="220" as="sourcePoint"/><mxPoint x="1080" y="550" as="targetPoint"/></mxGeometry></mxCell><mxCell id="Wg2WPYkWmGxqMk68Ed48-36" value="Consultant" style="text;html=1;strokeColor=none;fillColor=none;align=center;verticalAlign=middle;whiteSpace=wrap;rounded=0;dashed=1;fontFamily=Tahoma;fontSize=16;" parent="1" vertex="1"><mxGeometry x="875" y="601.99" width="110" height="30" as="geometry"/></mxCell><mxCell id="Wg2WPYkWmGxqMk68Ed48-39" value="InMemoryPersistenceAdapter" style="rounded=0;whiteSpace=wrap;html=1;fontFamily=Tahoma;fontSize=16;strokeColor=#000000;strokeWidth=2;fillColor=#dae8fc;" parent="1" vertex="1"><mxGeometry x="1430" y="570" width="260" height="60" as="geometry"/></mxCell><mxCell id="Wg2WPYkWmGxqMk68Ed48-59" value="" style="rounded=0;whiteSpace=wrap;html=1;fontFamily=Tahoma;fontSize=16;strokeColor=none;strokeWidth=2;fillColor=#E1F5E0;gradientColor=none;" parent="1" vertex="1"><mxGeometry x="512" y="606" width="11" height="8" as="geometry"/></mxCell><mxCell id="Wg2WPYkWmGxqMk68Ed48-40" value="Persistance &amp;lt;I&amp;gt;" style="text;html=1;strokeColor=none;fillColor=none;align=center;verticalAlign=middle;whiteSpace=wrap;rounded=0;dashed=1;fontFamily=Tahoma;fontSize=16;rotation=90;" parent="1" vertex="1"><mxGeometry x="1090" y="592" width="140" height="30" as="geometry"/></mxCell><mxCell id="Wg2WPYkWmGxqMk68Ed48-24" value="" style="endArrow=oval;html=1;rounded=0;shadow=0;sketch=0;fontFamily=Tahoma;fontSize=16;strokeWidth=3;jumpStyle=none;startArrow=none;startFill=0;endFill=1;exitX=0.5;exitY=1;exitDx=0;exitDy=0;entryX=0;entryY=0.5;entryDx=0;entryDy=0;" parent="1" edge="1"><mxGeometry width="50" height="50" relative="1" as="geometry"><mxPoint x="672.4999999999999" y="610.0000000000001" as="sourcePoint"/><mxPoint x="512" y="610" as="targetPoint"/></mxGeometry></mxCell><mxCell id="Wg2WPYkWmGxqMk68Ed48-33" value="Domain" style="rounded=0;whiteSpace=wrap;html=1;dashed=1;fontFamily=Tahoma;fontSize=16;strokeColor=none;strokeWidth=3;fillColor=#AE4132;gradientColor=none;fontColor=#FFFFFF;" parent="1" vertex="1"><mxGeometry x="845" y="510" width="170" height="30" as="geometry"/></mxCell><mxCell id="Wg2WPYkWmGxqMk68Ed48-42" value="" style="endArrow=circle;html=1;rounded=0;shadow=0;sketch=0;fontFamily=Tahoma;fontSize=16;strokeWidth=3;jumpStyle=none;startArrow=none;startFill=0;endFill=0;jumpSize=6;" parent="1" edge="1"><mxGeometry width="50" height="50" relative="1" as="geometry"><mxPoint x="1190" y="600" as="sourcePoint"/><mxPoint x="1380" y="600" as="targetPoint"/></mxGeometry></mxCell><mxCell id="Wg2WPYkWmGxqMk68Ed48-61" value="" style="rounded=0;whiteSpace=wrap;html=1;fontFamily=Tahoma;fontSize=16;strokeColor=none;strokeWidth=2;fillColor=#FFE6CC;gradientColor=none;" parent="1" vertex="1"><mxGeometry x="1370" y="596" width="11" height="8" as="geometry"/></mxCell><mxCell id="Wg2WPYkWmGxqMk68Ed48-43" value="" style="endArrow=oval;html=1;rounded=0;shadow=0;sketch=0;fontFamily=Tahoma;fontSize=16;strokeWidth=3;jumpStyle=none;jumpSize=6;exitX=0;exitY=0.5;exitDx=0;exitDy=0;endFill=1;" parent="1" edge="1"><mxGeometry width="50" height="50" relative="1" as="geometry"><mxPoint x="1428" y="600" as="sourcePoint"/><mxPoint x="1368" y="600" as="targetPoint"/></mxGeometry></mxCell><mxCell id="Wg2WPYkWmGxqMk68Ed48-51" value="" style="endArrow=classic;html=1;rounded=0;shadow=0;sketch=0;fontFamily=Tahoma;fontSize=16;endSize=6;strokeWidth=4;jumpStyle=none;jumpSize=12;fillColor=#fff2cc;strokeColor=#d6b656;" parent="1" edge="1"><mxGeometry width="50" height="50" relative="1" as="geometry"><mxPoint x="190" y="609.55" as="sourcePoint"/><mxPoint x="290" y="609.55" as="targetPoint"/></mxGeometry></mxCell><mxCell id="Wg2WPYkWmGxqMk68Ed48-52" value="" style="endArrow=none;dashed=1;html=1;strokeWidth=2;rounded=0;shadow=0;sketch=0;fontFamily=Tahoma;fontSize=16;jumpStyle=none;jumpSize=11;endSize=6;exitX=0;exitY=1;exitDx=0;exitDy=0;strokeColor=#666666;" parent="1" edge="1"><mxGeometry width="50" height="50" relative="1" as="geometry"><mxPoint x="930" y="1159" as="sourcePoint"/><mxPoint x="930" y="899" as="targetPoint"/></mxGeometry></mxCell><mxCell id="Wg2WPYkWmGxqMk68Ed48-56" value="App. Services" style="text;html=1;strokeColor=none;fillColor=none;align=center;verticalAlign=middle;whiteSpace=wrap;rounded=0;fontFamily=Tahoma;fontSize=16;" parent="1" vertex="1"><mxGeometry x="880" y="430" width="100" height="30" as="geometry"/></mxCell><mxCell id="Wg2WPYkWmGxqMk68Ed48-64" value="C/Q Handlers" style="rounded=0;whiteSpace=wrap;html=1;fontFamily=Tahoma;fontSize=16;strokeColor=none;strokeWidth=3;fillColor=#9673A6;rotation=-90;fontColor=#FFFFFF;" parent="1" vertex="1"><mxGeometry x="690" y="592" width="170" height="30" as="geometry"/></mxCell></root></mxGraphModel></diagram><diagram id="Sve7KczU5Cli3Lzwg7xb" name="Queuing"><mxGraphModel dx="1616" dy="1073" grid="1" gridSize="10" guides="1" tooltips="1" connect="1" arrows="1" fold="1" page="1" pageScale="1" pageWidth="850" pageHeight="1100" math="0" shadow="0"><root><mxCell id="0"/><mxCell id="1" parent="0"/><mxCell id="uhC3Sgg2JFrrIPbxjzvi-1" value="" style="rounded=0;whiteSpace=wrap;html=1;fillColor=#D5E8D4;fontColor=#ffffff;strokeColor=none;" vertex="1" parent="1"><mxGeometry x="120" y="60" width="810" height="1100" as="geometry"/></mxCell><mxCell id="uhC3Sgg2JFrrIPbxjzvi-2" value="" style="rounded=0;whiteSpace=wrap;html=1;fillColor=#FFCE9F;fontColor=#000000;strokeColor=none;" vertex="1" parent="1"><mxGeometry x="930" y="60" width="810" height="1100" as="geometry"/></mxCell><mxCell id="4w1ggGJ6xTFwYCr0f-6I-1" value="REST Controller" style="rounded=0;whiteSpace=wrap;html=1;fontFamily=Tahoma;fontSize=16;fillColor=#fff2cc;strokeColor=#000000;strokeWidth=2;" vertex="1" parent="1"><mxGeometry x="395" y="300" width="210" height="60" as="geometry"/></mxCell><mxCell id="4w1ggGJ6xTFwYCr0f-6I-2" value="" style="shape=actor;whiteSpace=wrap;html=1;fontFamily=Tahoma;fontSize=16;fillColor=default;" vertex="1" parent="1"><mxGeometry x="180" y="300" width="40" height="60" as="geometry"/></mxCell><mxCell id="4w1ggGJ6xTFwYCr0f-6I-3" value="" style="endArrow=classic;html=1;rounded=0;shadow=0;sketch=0;fontFamily=Tahoma;fontSize=16;endSize=6;strokeWidth=4;jumpStyle=none;jumpSize=12;fillColor=#fff2cc;strokeColor=#d6b656;" edge="1" parent="1"><mxGeometry width="50" height="50" relative="1" as="geometry"><mxPoint x="230" y="332.54999999999995" as="sourcePoint"/><mxPoint x="330" y="332.54999999999995" as="targetPoint"/></mxGeometry></mxCell><mxCell id="4w1ggGJ6xTFwYCr0f-6I-14" style="edgeStyle=orthogonalEdgeStyle;rounded=0;orthogonalLoop=1;jettySize=auto;html=1;entryX=0.5;entryY=1;entryDx=0;entryDy=0;entryPerimeter=0;fontSize=16;shape=flexArrow;fillColor=#ffe6cc;strokeColor=#d79b00;" edge="1" parent="1" target="4w1ggGJ6xTFwYCr0f-6I-4"><mxGeometry relative="1" as="geometry"><mxPoint x="500" y="550" as="sourcePoint"/><Array as="points"><mxPoint x="500" y="590"/></Array></mxGeometry></mxCell><mxCell id="4w1ggGJ6xTFwYCr0f-6I-6" value="command" style="shape=message;html=1;html=1;outlineConnect=0;labelPosition=center;verticalLabelPosition=bottom;align=center;verticalAlign=top;fontSize=16;" vertex="1" parent="1"><mxGeometry x="470" y="480" width="60" height="40" as="geometry"/></mxCell><mxCell id="4w1ggGJ6xTFwYCr0f-6I-7" value="" style="group" vertex="1" connectable="0" parent="1"><mxGeometry x="680" y="530" width="520" height="120" as="geometry"/></mxCell><mxCell id="4w1ggGJ6xTFwYCr0f-6I-4" value="" style="shape=cylinder3;whiteSpace=wrap;html=1;boundedLbl=1;backgroundOutline=1;size=15;rotation=90;fillColor=#e1d5e7;strokeColor=#9673a6;" vertex="1" parent="4w1ggGJ6xTFwYCr0f-6I-7"><mxGeometry x="200" y="-200" width="120" height="520" as="geometry"/></mxCell><mxCell id="4w1ggGJ6xTFwYCr0f-6I-5" value="COMMAND BUS" style="text;html=1;strokeColor=none;fillColor=none;align=center;verticalAlign=middle;whiteSpace=wrap;rounded=0;fontSize=16;fontStyle=1" vertex="1" parent="4w1ggGJ6xTFwYCr0f-6I-7"><mxGeometry x="190" y="50" width="140" height="30" as="geometry"/></mxCell><mxCell id="4w1ggGJ6xTFwYCr0f-6I-11" value="" style="shape=flexArrow;endArrow=classic;html=1;rounded=0;fontSize=16;" edge="1" parent="1"><mxGeometry width="50" height="50" relative="1" as="geometry"><mxPoint x="810" y="680" as="sourcePoint"/><mxPoint x="810" y="785" as="targetPoint"/></mxGeometry></mxCell><mxCell id="4w1ggGJ6xTFwYCr0f-6I-13" value="validate( )" style="rounded=0;whiteSpace=wrap;html=1;fontSize=16;fillColor=#dae8fc;strokeColor=#6c8ebf;" vertex="1" parent="1"><mxGeometry x="750" y="800" width="120" height="60" as="geometry"/></mxCell><mxCell id="4w1ggGJ6xTFwYCr0f-6I-17" value="" style="shape=flexArrow;endArrow=classic;html=1;rounded=0;fontSize=16;entryX=0;entryY=0;entryDx=65;entryDy=180;entryPerimeter=0;fillColor=#d5e8d4;strokeColor=#82b366;" edge="1" parent="1" target="4w1ggGJ6xTFwYCr0f-6I-18"><mxGeometry width="50" height="50" relative="1" as="geometry"><mxPoint x="1190" y="590" as="sourcePoint"/><mxPoint x="1360" y="600" as="targetPoint"/></mxGeometry></mxCell><mxCell id="4w1ggGJ6xTFwYCr0f-6I-18" value="CommandHandler" style="verticalAlign=top;align=left;spacingTop=8;spacingLeft=2;spacingRight=12;shape=cube;size=10;direction=south;fontStyle=4;html=1;fontSize=16;fillColor=#f8cecc;strokeColor=#b85450;" vertex="1" parent="1"><mxGeometry x="1390" y="524" width="180" height="120" as="geometry"/></mxCell><mxCell id="4w1ggGJ6xTFwYCr0f-6I-20" value="" style="shape=flexArrow;endArrow=classic;html=1;rounded=0;fontSize=16;" edge="1" parent="1"><mxGeometry width="50" height="50" relative="1" as="geometry"><mxPoint x="1060" y="680" as="sourcePoint"/><mxPoint x="1060" y="785" as="targetPoint"/></mxGeometry></mxCell><mxCell id="4w1ggGJ6xTFwYCr0f-6I-21" value="log" style="rounded=0;whiteSpace=wrap;html=1;fontSize=16;fillColor=#dae8fc;strokeColor=#6c8ebf;" vertex="1" parent="1"><mxGeometry x="1000" y="800" width="120" height="60" as="geometry"/></mxCell></root></mxGraphModel></diagram><diagram id="3h8SNYVXpsebBtJKDuf9" name="dependence"><mxGraphModel dx="1181" dy="1073" grid="1" gridSize="10" guides="1" tooltips="1" connect="1" arrows="1" fold="1" page="1" pageScale="1" pageWidth="850" pageHeight="1100" math="0" shadow="0"><root><mxCell id="0"/><mxCell id="1" parent="0"/><mxCell id="en9YOfxBSYs9zytD4DRq-1" value="" style="rounded=0;whiteSpace=wrap;html=1;fillColor=#D5E8D4;fontColor=#ffffff;strokeColor=none;" vertex="1" parent="1"><mxGeometry x="30" y="30" width="1620" height="1100" as="geometry"/></mxCell><mxCell id="en9YOfxBSYs9zytD4DRq-3" value="domain" style="shape=folder;fontStyle=1;spacingTop=10;tabWidth=40;tabHeight=14;tabPosition=left;html=1;fontSize=16;fillColor=#f8cecc;strokeColor=#b85450;" vertex="1" parent="1"><mxGeometry x="839" y="310" width="112" height="80" as="geometry"/></mxCell><mxCell id="en9YOfxBSYs9zytD4DRq-6" value="kernel" style="shape=folder;fontStyle=1;spacingTop=10;tabWidth=40;tabHeight=14;tabPosition=left;html=1;fontSize=16;" vertex="1" parent="1"><mxGeometry x="450" y="910" width="900" height="80" as="geometry"/></mxCell><mxCell id="en9YOfxBSYs9zytD4DRq-8" value="adapter.in" style="shape=folder;fontStyle=1;spacingTop=10;tabWidth=40;tabHeight=14;tabPosition=left;html=1;fontSize=16;fillColor=#ffe6cc;strokeColor=#d79b00;" vertex="1" parent="1"><mxGeometry x="450" y="690" width="112" height="80" as="geometry"/></mxCell><mxCell id="en9YOfxBSYs9zytD4DRq-10" value="application" style="shape=folder;fontStyle=1;spacingTop=10;tabWidth=40;tabHeight=14;tabPosition=left;html=1;fontSize=16;fillColor=#fff2cc;strokeColor=#d6b656;" vertex="1" parent="1"><mxGeometry x="700" y="500" width="390" height="300" as="geometry"/></mxCell><mxCell id="en9YOfxBSYs9zytD4DRq-5" value="port.in" style="shape=folder;fontStyle=1;spacingTop=10;tabWidth=40;tabHeight=14;tabPosition=left;html=1;fontSize=16;fillColor=#dae8fc;strokeColor=#6c8ebf;" vertex="1" parent="1"><mxGeometry x="720" y="690" width="160" height="80" as="geometry"/></mxCell><mxCell id="en9YOfxBSYs9zytD4DRq-9" value="port.out" style="shape=folder;fontStyle=1;spacingTop=10;tabWidth=40;tabHeight=14;tabPosition=left;html=1;fontSize=16;fillColor=#dae8fc;strokeColor=#6c8ebf;" vertex="1" parent="1"><mxGeometry x="910" y="690" width="160" height="80" as="geometry"/></mxCell><mxCell id="en9YOfxBSYs9zytD4DRq-11" value="Use" style="endArrow=open;endSize=12;dashed=1;html=1;rounded=0;fontSize=16;shape=flexArrow;" edge="1" parent="1" source="en9YOfxBSYs9zytD4DRq-8" target="en9YOfxBSYs9zytD4DRq-5"><mxGeometry width="160" relative="1" as="geometry"><mxPoint x="826" y="270" as="sourcePoint"/><mxPoint x="826" y="180" as="targetPoint"/></mxGeometry></mxCell><mxCell id="en9YOfxBSYs9zytD4DRq-12" value="adapter.out" style="shape=folder;fontStyle=1;spacingTop=10;tabWidth=40;tabHeight=14;tabPosition=left;html=1;fontSize=16;fillColor=#ffe6cc;strokeColor=#d79b00;" vertex="1" parent="1"><mxGeometry x="1230" y="690" width="112" height="80" as="geometry"/></mxCell><mxCell id="en9YOfxBSYs9zytD4DRq-13" value="Use" style="endArrow=open;endSize=12;dashed=1;html=1;rounded=0;fontSize=16;shape=flexArrow;" edge="1" parent="1" source="en9YOfxBSYs9zytD4DRq-12" target="en9YOfxBSYs9zytD4DRq-9"><mxGeometry width="160" relative="1" as="geometry"><mxPoint x="472" y="740" as="sourcePoint"/><mxPoint x="1010" y="730" as="targetPoint"/></mxGeometry></mxCell><mxCell id="en9YOfxBSYs9zytD4DRq-14" value="Use" style="endArrow=open;endSize=12;dashed=1;html=1;rounded=0;fontSize=16;shape=flexArrow;" edge="1" parent="1" source="en9YOfxBSYs9zytD4DRq-18" target="en9YOfxBSYs9zytD4DRq-3"><mxGeometry width="160" relative="1" as="geometry"><mxPoint x="840" y="375.33333333333326" as="sourcePoint"/><mxPoint x="742" y="384.6666666666665" as="targetPoint"/></mxGeometry></mxCell><mxCell id="en9YOfxBSYs9zytD4DRq-15" value="Use" style="endArrow=open;endSize=12;dashed=1;html=1;rounded=0;fontSize=16;shape=flexArrow;" edge="1" parent="1"><mxGeometry width="160" relative="1" as="geometry"><mxPoint x="550" y="820" as="sourcePoint"/><mxPoint x="550" y="910" as="targetPoint"/></mxGeometry></mxCell><mxCell id="en9YOfxBSYs9zytD4DRq-16" value="Use" style="endArrow=open;endSize=12;dashed=1;html=1;rounded=0;fontSize=16;shape=flexArrow;" edge="1" parent="1"><mxGeometry width="160" relative="1" as="geometry"><mxPoint x="894.38" y="820" as="sourcePoint"/><mxPoint x="894.38" y="910" as="targetPoint"/></mxGeometry></mxCell><mxCell id="en9YOfxBSYs9zytD4DRq-17" value="Use" style="endArrow=open;endSize=12;dashed=1;html=1;rounded=0;fontSize=16;shape=flexArrow;" edge="1" parent="1"><mxGeometry width="160" relative="1" as="geometry"><mxPoint x="1190" y="820" as="sourcePoint"/><mxPoint x="1190" y="910" as="targetPoint"/></mxGeometry></mxCell><mxCell id="en9YOfxBSYs9zytD4DRq-18" value="service" style="shape=folder;fontStyle=1;spacingTop=10;tabWidth=40;tabHeight=14;tabPosition=left;html=1;fontSize=16;fillColor=#dae8fc;strokeColor=#6c8ebf;" vertex="1" parent="1"><mxGeometry x="815" y="540" width="160" height="80" as="geometry"/></mxCell></root></mxGraphModel></diagram></mxfile>